<?xml version="1.0" standalone="no"?>
<!DOCTYPE svg PUBLIC "-//W3C//DTD SVG 20010904//EN" "http://www.w3.org/TR/2001/REC-SVG-20010904/DTD/svg10.dtd">
<svg
	version="1.0"
	xmlns="http://www.w3.org/2000/svg"
	width="512"
	height="512"
	viewBox="0 0 512 512"
	preserveAspectRatio="xMidYMid meet"
>
	<metadata>Created by potrace 1.14, written by Peter Selinger 2001-2017</metadata>
	<g
		transform="translate(0,512) scale(0.1,-0.1)"
		fill="#000000"
		stroke="none"
	>
		<path
			d="M2015 4951 c-33 -8 -75 -29 -75 -37 0 -3 13 -17 30 -30 41 -35 60
-106 60 -221 l0 -93 -43 -57 c-187 -250 -235 -475 -133 -626 l24 -36 -66 -20
c-37 -11 -108 -40 -158 -64 -195 -96 -416 -361 -468 -563 -38 -146 -7 -331 74
-445 l21 -29 44 59 c54 73 129 134 215 175 55 26 79 31 162 34 113 5 190 -16
275 -73 125 -84 212 -205 264 -365 56 -172 52 -399 -11 -573 -135 -369 -476
-522 -756 -338 -109 71 -194 179 -247 312 -47 119 -60 193 -60 339 1 116 5
148 27 223 15 49 36 107 47 129 11 22 18 42 15 45 -10 10 -115 -16 -190 -47
-200 -84 -329 -216 -397 -411 -83 -232 -49 -446 99 -627 l34 -42 -63 0 c-140
0 -309 -62 -429 -156 -213 -167 -341 -546 -262 -776 79 -230 299 -387 617
-443 212 -37 433 -31 800 22 99 15 189 26 200 26 156 -5 737 -32 1155 -53 813
-41 1400 -34 1691 20 268 50 388 130 491 327 72 137 93 216 93 353 0 86 -5
129 -19 170 -71 209 -249 395 -512 532 -55 28 -100 52 -102 53 -2 2 6 29 17
61 60 180 36 456 -56 644 -45 93 -152 204 -233 243 -72 35 -161 57 -228 57
-52 0 -54 1 -48 23 42 142 48 179 49 283 2 105 0 113 -30 175 -66 134 -189
268 -302 327 -73 39 -163 62 -244 62 l-65 0 16 58 c22 78 21 238 -2 322 -83
306 -401 636 -884 917 -138 80 -209 109 -308 129 -82 15 -85 15 -129 5z m1539
-1973 c136 -45 249 -153 327 -313 57 -119 77 -195 85 -330 27 -443 -281 -813
-628 -756 -298 49 -504 371 -485 756 11 215 82 387 214 520 140 140 311 183
487 123z m-106 -1668 c39 -22 42 -27 36 -55 -9 -42 -31 -71 -115 -149 -209
-197 -483 -311 -779 -323 -198 -8 -373 28 -559 113 -200 92 -431 291 -431 371
0 26 34 52 83 63 17 5 412 8 877 7 l845 -2 43 -25z"
		/>
		<path
			d="M3365 2700 c-50 -11 -89 -36 -132 -83 -78 -84 -113 -186 -113 -327 0
-195 88 -360 215 -403 90 -31 153 -16 231 56 172 157 180 497 17 678 -59 65
-145 97 -218 79z"
		/>
		<path
			d="M1669 2696 c-247 -66 -322 -515 -123 -736 187 -207 464 -21 467 315
1 105 -14 177 -55 258 -65 130 -177 194 -289 163z"
		/>
	</g>
</svg>